<?xml version="1.0" encoding="utf-8"?>
<svg viewBox="0 0 40 40" fill="none" style="" xmlns="http://www.w3.org/2000/svg">
  <path d="M22.0835 34.5274C20.8849 34.8359 19.6284 35 18.3335 35C10.0492 35 3.3335 28.2843 3.3335 20C3.3335 11.7157 10.0492 5 18.3335 5C25.9828 5 32.2948 10.7257 33.2175 18.125M5.2085 25.625H9.5835C11.3094 25.625 12.7085 24.2259 12.7085 22.5V18.4375C12.7085 16.7116 14.1076 15.3125 15.8335 15.3125H18.9585C20.6844 15.3125 22.0835 13.9134 22.0835 12.1875V6.875M31.5329 29.4095L35.8268 27.925C36.6317 27.6467 36.6586 26.5183 35.8679 26.2019L25.2219 21.9429C24.4813 21.6466 23.7405 22.3692 24.0182 23.117L28.0736 34.0362C28.37 34.8341 29.498 34.8359 29.7968 34.0389L31.5329 29.4095Z" stroke-linejoin="round" style="paint-order: stroke; fill-rule: nonzero; stroke: rgb(255, 255, 255);" stroke-linecap="round" stroke-width="2.5" transform="matrix(0.9999999999999999, 0, 0, 0.9999999999999999, 0, 0)"/>
  <path style="paint-order: fill; fill: rgb(255, 255, 255); stroke: rgb(255, 255, 255);" d="M 3.907 17.529 C 3.907 18.9 3.171 19.773 3.171 21.407 C 3.171 21.731 3.029 22.46 3.171 22.744 C 3.482 23.366 4.22 23.839 4.508 24.416 C 4.661 24.722 6.436 24.616 6.915 24.616 C 7.786 24.616 9.527 25.049 10.392 24.616 C 10.958 24.333 11.748 23.728 12.197 23.279 C 13.548 21.928 11.875 17.784 13.267 16.393 C 13.464 16.195 14.724 16.019 14.804 15.858 C 15.002 15.462 16.15 15.774 16.275 15.524 C 16.48 15.114 17.569 15.5 17.88 15.189 C 17.948 15.121 18.44 15.271 18.481 15.189 C 18.671 14.81 19.541 15.266 19.818 14.989 C 20.39 14.417 21.433 14.635 21.824 13.852 C 22.28 12.94 22.225 11.437 22.225 10.041 C 22.225 9.664 22.078 8.584 22.292 8.37 C 22.367 8.295 22.367 6.64 22.292 6.565 C 22.08 6.353 22.103 5.907 21.891 5.696 C 21.539 5.344 20.268 5.495 19.685 5.495 C 17.488 5.495 15.658 5.902 13.868 6.498 C 11.408 7.318 9.836 9.784 7.717 10.844 C 7.218 11.094 6.91 11.849 6.38 12.114 C 5.565 12.522 5.678 14.287 5.043 14.922 C 4.856 15.109 5.071 16.011 4.843 16.125 C 4.504 16.295 3.84 17.883 3.84 18.265" transform="matrix(0.9999999999999999, 0, 0, 0.9999999999999999, 0, 0)"/>
  <path style="fill: rgb(255, 255, 255); stroke: rgb(255, 255, 255);" d="M 24.097 22.967 C 24.097 23.716 24.555 25.503 25.1 25.775 C 25.274 25.862 25.199 26.393 25.434 26.51 C 25.688 26.637 25.871 27.682 26.103 27.914 C 26.326 28.137 26.014 28.895 26.237 29.118 C 26.46 29.341 26.7 30.311 26.838 30.589 C 27.041 30.994 27.275 32.345 27.641 32.527 C 27.837 32.625 28.747 33.203 28.844 33.397 C 28.897 33.503 29.506 33.336 29.513 33.33 C 29.779 33.063 29.33 31.482 29.646 31.324 C 30.289 31.003 30.717 30.187 31.251 29.653 C 32.227 28.677 34.216 28.828 35.195 27.848 C 35.273 27.77 35.935 26.916 35.663 26.644 C 34.515 25.496 31.738 25.861 30.582 24.705 C 30.375 24.498 29.781 24.572 29.58 24.371 C 29.418 24.209 28.858 24.385 28.71 24.237 C 28.277 23.804 26.908 23.909 26.638 23.368 C 26.567 23.227 25.697 23.292 25.635 23.168 C 25.369 22.635 23.897 22.525 23.897 23.368" transform="matrix(0.9999999999999999, 0, 0, 0.9999999999999999, 0, 0)"/>
</svg>