<?xml version="1.0" encoding="utf-8"?>
<svg viewBox="0 0 40 40" fill="none" xmlns="http://www.w3.org/2000/svg">
  <path d="M22.0833 34.5274C20.8847 34.8359 19.6282 35 18.3333 35C10.049 35 3.33331 28.2843 3.33331 20C3.33331 11.7157 10.049 5 18.3333 5C25.9826 5 32.2946 10.7257 33.2173 18.125M5.20831 25.625H9.58332C11.3092 25.625 12.7083 24.2259 12.7083 22.5V18.4375C12.7083 16.7116 14.1074 15.3125 15.8333 15.3125H18.9583C20.6842 15.3125 22.0833 13.9134 22.0833 12.1875V6.875M31.5327 29.4095L35.8267 27.925C36.6315 27.6467 36.6585 26.5183 35.8677 26.2019L25.2217 21.9429C24.4811 21.6466 23.7403 22.3692 24.018 23.117L28.0734 34.0362C28.3698 34.8341 29.4978 34.8359 29.7967 34.0389L31.5327 29.4095Z" stroke="#ffffff" stroke-width="2.5" stroke-linecap="round" stroke-linejoin="round"/>
</svg>