<svg viewBox="0 0 40 40" fill="none" xmlns="http://www.w3.org/2000/svg">
<path d="M7.51305 28.6363H32.4892C33.1832 28.6363 33.5767 27.5632 33.1681 26.9483C32.2218 25.5246 31.3027 23.4258 31.3027 20.895L31.3434 17.4332C31.3434 10.5666 26.2649 5 20.0003 5C13.8267 5 8.82193 10.4858 8.82193 17.2528L8.78125 20.895C8.78125 23.4086 7.82926 25.4959 6.84295 26.9191C6.41789 27.5324 6.81036 28.6363 7.51305 28.6363Z" fill="white"/>
<path d="M15.5559 33.4848C16.7353 34.4271 18.2929 35 20.0003 35C21.7078 35 23.2653 34.4271 24.4448 33.4848M7.51305 28.6363C6.81036 28.6363 6.41789 27.5324 6.84295 26.9191C7.82926 25.4959 8.78125 23.4086 8.78125 20.895L8.82193 17.2528C8.82193 10.4858 13.8267 5 20.0003 5C26.2649 5 31.3434 10.5666 31.3434 17.4332L31.3027 20.895C31.3027 23.4258 32.2219 25.5246 33.1681 26.9483C33.5767 27.5632 33.1832 28.6363 32.4892 28.6363H7.51305Z" stroke="white" stroke-width="2.5" stroke-linecap="round" stroke-linejoin="round"/>
</svg>
