<?xml version="1.0" encoding="utf-8"?>
<svg viewBox="0 0 40 40" fill="none" xmlns="http://www.w3.org/2000/svg">
  <path d="M 8.75 31.087 C 6.679 31.087 5 29.408 5 27.337 L 5 12.663 C 5 10.592 6.679 8.913 8.75 8.913 L 31.25 8.913 C 33.321 8.913 35 10.592 35 12.663 L 35 27.337 C 35 29.408 33.321 31.087 31.25 31.087 L 8.75 31.087 Z" stroke-width="2.5" stroke-linecap="round" stroke-linejoin="round" style="stroke: rgb(255, 255, 255); fill: rgb(255, 255, 255);" transform="matrix(0.9999999999999999, 0, 0, 0.9999999999999999, 0, 0)"/>
  <path style="fill: rgb(255, 255, 255); stroke: rgb(255, 255, 255);" d="M 7.565 11.174 C 8.122 11.313 9.039 12.257 9.366 12.583 C 9.968 13.186 11.317 13.285 12.107 13.68 C 13.507 14.38 14.489 15.732 15.865 16.421 C 16.292 16.634 17.065 17.096 17.275 17.517 C 17.343 17.653 18.141 17.95 18.371 18.065 C 19.507 18.633 19.852 19.404 20.955 18.3 C 21.075 18.181 22.054 18.218 22.13 18.065 C 22.281 17.764 22.683 18.06 22.913 17.83 C 23.282 17.462 24.066 17.247 24.323 16.734 C 24.705 15.97 26.663 15.97 27.064 15.168 C 27.25 14.795 28.679 14.805 28.943 14.541 C 30.21 13.274 31.971 11.931 33.642 11.096 C 33.737 11.048 34.49 9.816 34.425 9.686 C 34.321 9.478 33.442 9.529 33.172 9.529 C 32.267 9.529 31.303 9.451 30.509 9.451 C 30.266 9.451 29.53 9.581 29.335 9.451 C 28.615 8.971 26.756 9.06 25.811 9.06 C 25.562 9.06 24.404 9.219 24.244 9.06 C 23.822 8.637 21.873 8.903 21.112 8.903 C 20.966 8.903 20.265 8.81 20.172 8.903 C 19.772 9.303 17.656 9.06 16.962 9.06 C 14.56 9.06 12.159 9.06 9.757 9.06 C 9.413 9.06 7.674 8.92 7.565 9.138 C 7.416 9.435 6.997 9.862 6.781 10.078 C 6.56 10.299 6.616 11.284 6.781 11.017 C 6.825 10.947 6.875 10.705 6.875 10.788 L 20 19.226 L 34.063 10.788" transform="matrix(0.9999999999999999, 0, 0, 0.9999999999999999, 0, 0)"/>
  <path d="M 6.875 10.789 L 20 19.226 L 34.063 10.789" stroke-width="2.5" stroke-linecap="round" stroke-linejoin="round" style="stroke: rgb(34, 34, 34);" transform="matrix(0.9999999999999999, 0, 0, 0.9999999999999999, 0, 0)"/>
</svg>