<svg width="15" height="15" viewBox="0 0 15 15" fill="none" xmlns="http://www.w3.org/2000/svg">
<path d="M5.17137 9.82846L1 14.0001" stroke="black" stroke-width="1.5" stroke-linecap="round" stroke-linejoin="round"/>
<path d="M2.91618 7.57323L7.42666 12.0837C7.51607 12.1731 7.62991 12.2341 7.75385 12.2591C7.87782 12.284 8.00636 12.2717 8.1234 12.2238C8.24041 12.176 8.34067 12.0945 8.41158 11.9899C8.48249 11.8852 8.5209 11.7619 8.52198 11.6355L8.53498 10.1263C8.53588 10.025 8.56077 9.9253 8.60754 9.83546C8.65435 9.74559 8.72173 9.66807 8.80421 9.60925L13.7315 6.09712C13.8072 6.04295 13.8702 5.97297 13.9162 5.89204C13.9622 5.81111 13.99 5.72113 13.9977 5.62836C14.0054 5.53562 13.9929 5.44229 13.961 5.35486C13.929 5.26743 13.8785 5.18799 13.8128 5.12206L9.87894 1.18713C9.81299 1.12144 9.73355 1.07088 9.64612 1.03895C9.55869 1.00702 9.46538 0.994487 9.37262 1.00222C9.27985 1.00995 9.1899 1.03776 9.10897 1.08372C9.02801 1.12968 8.95805 1.19269 8.90388 1.26839L5.39149 6.19571C5.33271 6.27819 5.25525 6.3456 5.16544 6.39238C5.07562 6.43918 4.97598 6.46405 4.87471 6.46494L3.36552 6.47794C3.23901 6.47878 3.11556 6.51705 3.01071 6.58788C2.90586 6.65871 2.82431 6.75898 2.77629 6.87604C2.72827 6.9931 2.71592 7.12173 2.74081 7.2458C2.7657 7.36985 2.82672 7.48377 2.91618 7.57323Z" stroke="black" stroke-width="1.5" stroke-linecap="round" stroke-linejoin="round"/>
</svg>
