<svg width="11" height="10" viewBox="0 0 11 10" fill="none" xmlns="http://www.w3.org/2000/svg">
<path d="M0.522424 8.88671C0.27052 9.14141 0.27052 9.55428 0.522424 9.80898C0.774328 10.0637 1.18275 10.0637 1.43466 9.80898L0.522424 8.88671ZM5.73494 5.46114C5.98686 5.20644 5.98686 4.79357 5.73494 4.53888C5.48303 4.28418 5.07467 4.28418 4.82276 4.53888L5.73494 5.46114ZM4.82276 4.53888C4.57085 4.79357 4.57085 5.20644 4.82276 5.46114C5.07467 5.71584 5.48303 5.71584 5.73494 5.46114L4.82276 4.53888ZM10.0353 1.11333C10.2872 0.858644 10.2872 0.445703 10.0353 0.191016C9.78334 -0.0636719 9.37499 -0.0636719 9.12307 0.191016L10.0353 1.11333ZM5.73494 4.53888C5.48303 4.28418 5.07467 4.28418 4.82276 4.53888C4.57085 4.79357 4.57085 5.20644 4.82276 5.46114L5.73494 4.53888ZM9.12307 9.80898C9.37499 10.0637 9.78334 10.0637 10.0353 9.80898C10.2872 9.55428 10.2872 9.14141 10.0353 8.88671L9.12307 9.80898ZM4.82276 5.46114C5.07467 5.71584 5.48303 5.71584 5.73494 5.46114C5.98686 5.20644 5.98686 4.79357 5.73494 4.53888L4.82276 5.46114ZM1.43466 0.191016C1.18275 -0.0636719 0.774328 -0.0636719 0.522424 0.191016C0.27052 0.445703 0.27052 0.858644 0.522424 1.11333L1.43466 0.191016ZM1.43466 9.80898L5.73494 5.46114L4.82276 4.53888L0.522424 8.88671L1.43466 9.80898ZM5.73494 5.46114L10.0353 1.11333L9.12307 0.191016L4.82276 4.53888L5.73494 5.46114ZM4.82276 5.46114L9.12307 9.80898L10.0353 8.88671L5.73494 4.53888L4.82276 5.46114ZM5.73494 4.53888L1.43466 0.191016L0.522424 1.11333L4.82276 5.46114L5.73494 4.53888Z" fill="black"/>
</svg>
