<svg width="30" height="31" viewBox="0 0 30 31" fill="none" xmlns="http://www.w3.org/2000/svg">
<path d="M11.4 11.9V10.65C10.7096 10.65 10.15 11.2096 10.15 11.9H11.4ZM11.5195 11.9H12.7695C12.7695 11.2096 12.2099 10.65 11.5195 10.65V11.9ZM18.6 11.9V10.65C17.9096 10.65 17.35 11.2096 17.35 11.9H18.6ZM18.7063 11.9H19.9563C19.9563 11.2096 19.3966 10.65 18.7063 10.65V11.9ZM11.5195 11.9961V13.2461C12.2099 13.2461 12.7695 12.6864 12.7695 11.9961H11.5195ZM11.4 11.9961H10.15C10.15 12.6864 10.7096 13.2461 11.4 13.2461V11.9961ZM18.7063 11.9961V13.2461C19.3966 13.2461 19.9563 12.6864 19.9563 11.9961H18.7063ZM18.6 11.9961H17.35C17.35 12.6864 17.9096 13.2461 18.6 13.2461V11.9961ZM11.9028 18.491C11.5394 17.904 10.769 17.7227 10.182 18.0861C9.59503 18.4494 9.41373 19.2199 9.77709 19.8069L11.9028 18.491ZM20.2229 19.8069C20.5863 19.2199 20.405 18.4494 19.818 18.0861C19.231 17.7227 18.4606 17.904 18.0972 18.491L20.2229 19.8069ZM25.75 15.5C25.75 21.4371 20.9371 26.25 15 26.25V28.75C22.3178 28.75 28.25 22.8178 28.25 15.5H25.75ZM15 26.25C9.06294 26.25 4.25 21.4371 4.25 15.5H1.75C1.75 22.8178 7.68223 28.75 15 28.75V26.25ZM4.25 15.5C4.25 9.56294 9.06294 4.75 15 4.75V2.25C7.68223 2.25 1.75 8.18223 1.75 15.5H4.25ZM15 4.75C20.9371 4.75 25.75 9.56294 25.75 15.5H28.25C28.25 8.18223 22.3178 2.25 15 2.25V4.75ZM11.4 13.15H11.5195V10.65H11.4V13.15ZM18.6 13.15H18.7063V10.65H18.6V13.15ZM10.2695 11.9V11.9961H12.7695V11.9H10.2695ZM11.5195 10.7461H11.4V13.2461H11.5195V10.7461ZM12.65 11.9961V11.9H10.15V11.9961H12.65ZM17.4563 11.9V11.9961H19.9563V11.9H17.4563ZM18.7063 10.7461H18.6V13.2461H18.7063V10.7461ZM19.85 11.9961V11.9H17.35V11.9961H19.85ZM15 20.2499C13.7128 20.2499 12.5654 19.5616 11.9028 18.491L9.77709 19.8069C10.8643 21.5632 12.7893 22.7499 15 22.7499V20.2499ZM18.0972 18.491C17.4345 19.5616 16.2872 20.2499 15 20.2499V22.7499C17.2107 22.7499 19.1357 21.5632 20.2229 19.8069L18.0972 18.491Z" fill="white" fill-opacity="0.75"/>
</svg>
