<svg width="20" height="20" viewBox="0 0 20 20" fill="none" xmlns="http://www.w3.org/2000/svg">
<path d="M1 10C1 14.9705 5.02943 19 10 19C11.4912 19 12.7 17.7912 12.7 16.3V15.85C12.7 15.432 12.7 15.2231 12.7231 15.0476C12.8826 13.836 13.836 12.8826 15.0476 12.7231C15.2231 12.7 15.432 12.7 15.85 12.7H16.3C17.7912 12.7 19 11.4912 19 10C19 5.02943 14.9705 1 10 1C5.02943 1 1 5.02943 1 10Z" stroke="black" stroke-width="1.5" stroke-linecap="round" stroke-linejoin="round"/>
<path d="M5.5 10.8438C5.96599 10.8438 6.34375 10.466 6.34375 10C6.34375 9.534 5.96599 9.15625 5.5 9.15625C5.03401 9.15625 4.65625 9.534 4.65625 10C4.65625 10.466 5.03401 10.8438 5.5 10.8438Z" stroke="black" stroke-width="1.5" stroke-linecap="round" stroke-linejoin="round"/>
<path d="M13.6562 7.1875C14.1223 7.1875 14.5 6.80974 14.5 6.34375C14.5 5.87776 14.1223 5.5 13.6562 5.5C13.1902 5.5 12.8125 5.87776 12.8125 6.34375C12.8125 6.80974 13.1902 7.1875 13.6562 7.1875Z" stroke="black" stroke-width="1.5" stroke-linecap="round" stroke-linejoin="round"/>
<path d="M8.3125 6.34375C8.7785 6.34375 9.15625 5.96599 9.15625 5.5C9.15625 5.03401 8.7785 4.65625 8.3125 4.65625C7.84651 4.65625 7.46875 5.03401 7.46875 5.5C7.46875 5.96599 7.84651 6.34375 8.3125 6.34375Z" stroke="black" stroke-width="1.5" stroke-linecap="round" stroke-linejoin="round"/>
</svg>
