<svg width="15" height="15" viewBox="0 0 15 15" fill="none" xmlns="http://www.w3.org/2000/svg">
<path d="M1 13.4999C0.999969 13.7761 1.2238 14 1.49994 14C1.77609 14 1.99997 13.7762 2 13.5001L1 13.4999ZM1.50025 11.2497L2.00025 11.2498L1.50025 11.2497ZM7.875 9.5C8.15114 9.5 8.375 9.27614 8.375 9C8.375 8.72386 8.15114 8.5 7.875 8.5V9.5ZM13.5 10.25C13.7761 10.25 14 10.0261 14 9.75C14 9.47386 13.7761 9.25 13.5 9.25V10.25ZM10.125 9.25C9.84886 9.25 9.625 9.47386 9.625 9.75C9.625 10.0261 9.84886 10.25 10.125 10.25V9.25ZM11.3125 11.4374C11.3125 11.7136 11.5364 11.9374 11.8125 11.9374C12.0886 11.9374 12.3125 11.7136 12.3125 11.4374H11.3125ZM12.3125 8.06241C12.3125 7.78627 12.0886 7.56241 11.8125 7.56241C11.5364 7.56241 11.3125 7.78627 11.3125 8.06241H12.3125ZM8.5 3.75C8.5 4.7165 7.7165 5.5 6.75 5.5V6.5C8.26878 6.5 9.5 5.26878 9.5 3.75H8.5ZM6.75 5.5C5.7835 5.5 5 4.7165 5 3.75H4C4 5.26878 5.23122 6.5 6.75 6.5V5.5ZM5 3.75C5 2.7835 5.7835 2 6.75 2V1C5.23122 1 4 2.23122 4 3.75H5ZM6.75 2C7.7165 2 8.5 2.7835 8.5 3.75H9.5C9.5 2.23122 8.26878 1 6.75 1V2ZM2 13.5001L2.00025 11.2498L1.00025 11.2497L1 13.4999L2 13.5001ZM3.75025 8.5C2.23159 8.5 1.00042 9.73103 1.00025 11.2497L2.00025 11.2498C2.00036 10.2834 2.78383 9.5 3.75025 9.5V8.5ZM3.75025 9.5H7.875V8.5H3.75025V9.5ZM13.5 9.25H11.8125V10.25H13.5V9.25ZM11.8125 9.25H10.125V10.25H11.8125V9.25ZM12.3125 11.4374V9.75H11.3125V11.4374H12.3125ZM12.3125 9.75V8.06241H11.3125V9.75H12.3125Z" fill="white"/>
</svg>
