<svg width="30" height="30" viewBox="0 0 30 30" fill="none" xmlns="http://www.w3.org/2000/svg">
<path d="M14.9341 14.745H15M12.2747 9.82304C10.5454 10.7826 9.375 12.6271 9.375 14.745C9.375 16.8628 10.5454 18.7073 12.2747 19.6669M17.7253 9.82304C19.4546 10.7826 20.625 12.6271 20.625 14.745C20.625 16.8628 19.4546 18.7073 17.7253 19.6669M9.375 24.4899C6.01237 22.5447 3.75 18.909 3.75 14.745C3.75 10.5809 6.01237 6.94518 9.375 5M20.625 24.4899C23.9876 22.5447 26.25 18.909 26.25 14.745C26.25 10.5809 23.9876 6.94518 20.625 5" stroke="white" stroke-width="2" stroke-linecap="round"/>
</svg>
