<svg width="24" height="25" viewBox="0 0 24 25" fill="none" xmlns="http://www.w3.org/2000/svg">
<path d="M14.3986 22.4977V16.2484C14.3986 15.5581 14.9358 14.9985 15.5984 14.9985H21.5978V6.24937C21.5978 4.17851 19.9862 2.49975 17.9982 2.49975H5.9994C4.01137 2.49975 2.39976 4.17851 2.39976 6.24937V18.7481C2.39976 20.819 4.01137 22.4977 5.9994 22.4977H14.3986ZM23.9976 16.1784C24.0178 16.5103 23.9116 16.8557 23.6462 17.1322L16.4469 24.6314C16.1814 24.9079 15.8499 25.0185 15.5313 24.9975H5.9994C2.68602 24.9975 0 22.1996 0 18.7481V6.24937C0 2.79794 2.68602 0 5.9994 0H17.9982C21.3116 0 23.9976 2.79794 23.9976 6.24937V16.1784ZM16.7983 17.4982V20.7302L19.9009 17.4982H16.7983ZM5.9994 9.999C5.33672 9.999 4.79952 9.43941 4.79952 8.74912C4.79952 8.05884 5.33672 7.49925 5.9994 7.49925H17.9982C18.6609 7.49925 19.1981 8.05884 19.1981 8.74912C19.1981 9.43941 18.6609 9.999 17.9982 9.999H5.9994ZM5.9994 14.9985C5.33672 14.9985 4.79952 14.4389 4.79952 13.7486C4.79952 13.0583 5.33672 12.4987 5.9994 12.4987H10.7989C11.4616 12.4987 11.9988 13.0583 11.9988 13.7486C11.9988 14.4389 11.4616 14.9985 10.7989 14.9985H5.9994Z" fill="white" fill-opacity="0.75"/>
</svg>
