<svg width="30" height="30" viewBox="0 0 30 30" fill="none" xmlns="http://www.w3.org/2000/svg">
<path d="M23.75 13.125V7.5C23.75 6.11929 22.6307 5 21.25 5H6.25C4.86929 5 3.75 6.11929 3.75 7.5V17.2826C3.75 18.6633 4.86929 19.7826 6.25 19.7826H8.20652V25L13.4239 19.7826H13.75M20.2038 22.9891L23.4647 26.25V22.9891H23.75C25.1307 22.9891 26.25 21.8698 26.25 20.4891V16.25C26.25 14.8693 25.1307 13.75 23.75 13.75H16.25C14.8693 13.75 13.75 14.8693 13.75 16.25V20.4891C13.75 21.8698 14.8693 22.9891 16.25 22.9891H20.2038Z" stroke="white" stroke-width="2" stroke-linecap="round" stroke-linejoin="round"/>
</svg>
