<svg width="25" height="25" viewBox="0 0 25 25" fill="none" xmlns="http://www.w3.org/2000/svg">
<path d="M6.45536 21.8065L15.8914 12.9256L20.3318 17.3661M6.45536 21.8065H17.5565C19.3958 21.8065 20.8869 20.3155 20.8869 18.4762V12.9256M6.45536 21.8065C4.61605 21.8065 3.125 20.3155 3.125 18.4762V7.37501C3.125 5.5357 4.61605 4.04465 6.45536 4.04465H13.6711M19.7768 9.40478L19.7768 6.26489M19.7768 6.26489L19.7768 3.125M19.7768 6.26489L16.6369 6.26489M19.7768 6.26489L22.9167 6.26489M9.78571 9.04019C9.78571 9.95984 9.04019 10.7054 8.12053 10.7054C7.20088 10.7054 6.45536 9.95984 6.45536 9.04019C6.45536 8.12053 7.20088 7.37501 8.12053 7.37501C9.04019 7.37501 9.78571 8.12053 9.78571 9.04019Z" stroke="white" strokeWidth="2" strokeLinecap="round" strokeLinejoin="round"/>
</svg>
