<svg width="25" height="25" viewBox="0 0 25 25" fill="none" xmlns="http://www.w3.org/2000/svg">
<path d="M7.68589 10.6151L5.35937 12.9417C4.49048 13.8105 3.99081 14.9928 3.99995 16.2353C4.00908 17.4778 4.49781 18.6673 5.40793 19.5493C6.28989 20.4595 7.47961 20.9482 8.72192 20.9573C9.99257 20.9666 11.1468 20.4951 12.0158 19.6262L14.3423 17.2997M17.314 14.3848L19.6405 12.0583C20.5094 11.1894 21.0091 10.0072 20.9999 8.76468C20.9908 7.52216 20.5021 6.3327 19.5919 5.45069C18.7102 4.56893 17.5207 4.08017 16.2782 4.07104C15.0356 4.06191 13.8532 4.53321 12.9843 5.40213L10.6578 7.72864M8.97192 15.9658L15.9515 8.98625" stroke="currentColor" strokeWidth="2" strokeLinecap="round" strokeLinejoin="round"/>
</svg>
