<svg width="118" height="126" viewBox="0 0 118 126" fill="none" xmlns="http://www.w3.org/2000/svg">
<path d="M76.9555 68.1278C72.462 83.5146 66.1008 96.6363 59.5505 105.415C56.2681 109.814 53.0374 112.988 50.0938 114.851C47.1451 116.716 44.809 117.079 43.019 116.556C41.2291 116.033 39.4553 114.471 37.974 111.311C36.4954 108.157 35.4808 103.743 35.0817 98.2691C34.2853 87.345 35.9856 72.8622 40.4791 57.4754C44.9726 42.0885 51.3338 28.9668 57.8841 20.1883C61.1665 15.7893 64.3972 12.6148 67.3408 10.7524C70.2895 8.88681 72.6256 8.52416 74.4156 9.0469C76.2056 9.56963 77.9794 11.1325 79.4606 14.2919C80.9393 17.4457 81.9538 21.8599 82.3529 27.334C83.1493 38.2581 81.449 52.7409 76.9555 68.1278Z" stroke="white" stroke-width="6"/>
<path d="M77.1018 67.6491C73.1216 81.2783 67.2373 92.8042 61.0588 100.43C57.9652 104.248 54.8943 106.969 52.0693 108.534C49.2579 110.092 46.9061 110.399 44.9875 109.838C43.0689 109.278 41.2519 107.754 39.7206 104.928C38.1819 102.088 37.058 98.1423 36.5054 93.2594C35.4018 83.5071 36.6452 70.6259 40.6255 56.9967C44.6057 43.3675 50.49 31.8416 56.6686 24.216C59.7621 20.3979 62.833 17.6769 65.658 16.1119C68.4694 14.5543 70.8212 14.2473 72.7398 14.8076C74.6584 15.3679 76.4754 16.8923 78.0067 19.7181C79.5454 22.5576 80.6693 26.5035 81.2219 31.3865C82.3255 41.1387 81.0821 54.0199 77.1018 67.6491Z" stroke="#0038FF" stroke-width="6"/>
<path d="M76.9531 68.1283C73.2505 80.8068 67.626 91.4706 61.6521 98.4753C55.4761 105.717 49.8089 108.123 45.8199 106.958C41.8309 105.793 38.3491 100.715 37.041 91.288C35.7758 82.1692 36.7742 70.1544 40.4767 57.4759C44.1793 44.7975 49.8038 34.1337 55.7777 27.129C61.9537 19.8873 67.6209 17.4816 71.6099 18.6465C75.599 19.8114 79.0808 24.889 80.3888 34.3163C81.6541 43.4351 80.6557 55.4499 76.9531 68.1283Z" stroke="#0038FF" stroke-width="6"/>
<path d="M76.9538 68.128C72.7758 82.4343 66.7074 94.5747 60.3846 102.644C57.2177 106.685 54.0851 109.58 51.2148 111.259C48.3522 112.933 46.0074 113.263 44.1386 112.717C42.2698 112.171 40.4711 110.631 38.9593 107.679C37.4435 104.72 36.361 100.595 35.8669 95.4838C34.8805 85.2801 36.2994 71.7819 40.4774 57.4756C44.6553 43.1693 50.7238 31.0289 57.0465 22.9597C60.2134 18.9181 63.3461 16.0235 66.2163 14.345C69.079 12.671 71.4237 12.341 73.2925 12.8867C75.1614 13.4325 76.96 14.9725 78.4718 17.9241C79.9876 20.8835 81.0702 25.009 81.5642 30.1198C82.5507 40.3235 81.1317 53.8217 76.9538 68.128Z" stroke="white" stroke-width="6"/>
<path d="M59 81.7871C42.9705 81.7871 28.5917 79.3593 18.3288 75.5325C13.1861 73.6149 9.23328 71.4036 6.62041 69.1001C4.00299 66.7926 3 64.6518 3 62.7871C3 60.9224 4.00299 58.7816 6.62041 56.4741C9.23328 54.1706 13.1861 51.9593 18.3288 50.0417C28.5917 46.2149 42.9705 43.7871 59 43.7871C75.0295 43.7871 89.4083 46.2149 99.6712 50.0417C104.814 51.9593 108.767 54.1706 111.38 56.4741C113.997 58.7816 115 60.9224 115 62.7871C115 64.6518 113.997 66.7926 111.38 69.1001C108.767 71.4036 104.814 73.6149 99.6712 75.5325C89.4083 79.3593 75.0295 81.7871 59 81.7871Z" stroke="white" stroke-width="6"/>
<path d="M59.4951 81.7178C45.2966 81.7178 32.5834 79.3004 23.5315 75.5072C18.9992 73.608 15.5265 71.423 13.2323 69.15C10.9491 66.8879 9.99512 64.7165 9.99512 62.7178C9.99512 60.719 10.9491 58.5476 13.2323 56.2855C15.5265 54.0125 18.9992 51.8275 23.5315 49.9283C32.5834 46.1351 45.2966 43.7178 59.4951 43.7178C73.6936 43.7178 86.4069 46.1351 95.4588 49.9283C99.991 51.8275 103.464 54.0125 105.758 56.2855C108.041 58.5476 108.995 60.719 108.995 62.7178C108.995 64.7165 108.041 66.8879 105.758 69.15C103.464 71.423 99.991 73.608 95.4588 75.5072C86.4069 79.3004 73.6936 81.7178 59.4951 81.7178Z" stroke="#0038FF" stroke-width="6"/>
<path d="M59.001 81.7861C45.7929 81.7861 33.98 79.3764 25.5815 75.6057C16.8989 71.7074 13.001 66.9418 13.001 62.7861C13.001 58.6305 16.8989 53.8649 25.5815 49.9666C33.98 46.1958 45.7929 43.7861 59.001 43.7861C72.209 43.7861 84.0219 46.1958 92.4204 49.9666C101.103 53.8649 105.001 58.6305 105.001 62.7861C105.001 66.9418 101.103 71.7074 92.4204 75.6057C84.0219 79.3764 72.209 81.7861 59.001 81.7861Z" stroke="#0038FF" stroke-width="6"/>
<path d="M58.999 81.7861C44.0951 81.7861 30.7404 79.3643 21.2223 75.5571C16.455 73.6501 12.7983 71.4545 10.3825 69.1699C7.97308 66.8912 6.99902 64.733 6.99902 62.7861C6.99902 60.8393 7.97308 58.681 10.3825 56.4024C12.7983 54.1178 16.455 51.9222 21.2223 50.0152C30.7404 46.208 44.0951 43.7861 58.999 43.7861C73.9029 43.7861 87.2577 46.208 96.7757 50.0152C101.543 51.9222 105.2 54.1178 107.616 56.4024C110.025 58.681 110.999 60.8393 110.999 62.7861C110.999 64.733 110.025 66.8912 107.616 69.1699C105.2 71.4545 101.543 73.6501 96.7757 75.5571C87.2577 79.3643 73.9029 81.7861 58.999 81.7861Z" stroke="white" stroke-width="6"/>
<circle cx="59.1607" cy="62.9944" r="7" transform="rotate(23.4922 59.1607 62.9944)" fill="white"/>
</svg>
