<svg width="22" height="27" viewBox="0 0 22 27" fill="none" xmlns="http://www.w3.org/2000/svg">
<path d="M1.56001 9.25043C1.27894 9.47076 1.28613 9.8986 1.57443 10.1094L9.81967 16.1371C10.5227 16.651 11.4774 16.651 12.1803 16.1371L20.4256 10.1094C20.7139 9.8986 20.7211 9.47076 20.44 9.25043C20.2509 9.10216 19.9864 9.09709 19.7917 9.23801L12.1727 14.7528C11.4729 15.2593 10.5271 15.2593 9.82733 14.7528L2.20829 9.23801C2.01361 9.09709 1.74914 9.10216 1.56001 9.25043Z" fill="white"/>
<path d="M1.56001 9.25043C1.27894 9.47076 1.28613 9.8986 1.57443 10.1094L9.81967 16.1371C10.5227 16.651 11.4774 16.651 12.1803 16.1371L20.4256 10.1094C20.7139 9.8986 20.7211 9.47076 20.44 9.25043C20.2509 9.10216 19.9864 9.09709 19.7917 9.23801L12.1727 14.7528C11.4729 15.2593 10.5271 15.2593 9.82733 14.7528L2.20829 9.23801C2.01361 9.09709 1.74914 9.10216 1.56001 9.25043Z" stroke="white"/>
<path d="M1.51076 14.3252C1.24288 14.5614 1.25011 14.9813 1.52597 15.2082L9.7296 21.9552C10.4677 22.5623 11.5323 22.5622 12.2704 21.9552L20.474 15.2082C20.7499 14.9813 20.7571 14.5614 20.4893 14.3252C20.2765 14.1375 19.9593 14.1313 19.7393 14.3104L12.2629 20.3984C11.5274 20.9973 10.4726 20.9973 9.73715 20.3984L2.26067 14.3104C2.04072 14.1313 1.7235 14.1375 1.51076 14.3252Z" fill="white"/>
<path d="M1.51076 14.3252C1.24288 14.5614 1.25011 14.9813 1.52597 15.2082L9.7296 21.9552C10.4677 22.5623 11.5323 22.5622 12.2704 21.9552L20.474 15.2082C20.7499 14.9813 20.7571 14.5614 20.4893 14.3252C20.2765 14.1375 19.9593 14.1313 19.7393 14.3104L12.2629 20.3984C11.5274 20.9973 10.4726 20.9973 9.73715 20.3984L2.26067 14.3104C2.04072 14.1313 1.7235 14.1375 1.51076 14.3252Z" stroke="white"/>
<path d="M1.51076 3.32516C1.24288 3.56141 1.25011 3.98131 1.52597 4.20819L9.7296 10.9552C10.4677 11.5623 11.5323 11.5622 12.2704 10.9552L20.474 4.20818C20.7499 3.98131 20.7571 3.56141 20.4893 3.32517C20.2765 3.13755 19.9593 3.13131 19.7393 3.31041L12.2629 9.39843C11.5274 9.99728 10.4726 9.99728 9.73715 9.39843L2.26067 3.31041C2.04072 3.13131 1.7235 3.13755 1.51076 3.32516Z" fill="white"/>
<path d="M1.51076 3.32516C1.24288 3.56141 1.25011 3.98131 1.52597 4.20819L9.7296 10.9552C10.4677 11.5623 11.5323 11.5622 12.2704 10.9552L20.474 4.20818C20.7499 3.98131 20.7571 3.56141 20.4893 3.32517C20.2765 3.13755 19.9593 3.13131 19.7393 3.31041L12.2629 9.39843C11.5274 9.99728 10.4726 9.99728 9.73715 9.39843L2.26067 3.31041C2.04072 3.13131 1.7235 3.13755 1.51076 3.32516Z" stroke="white"/>
</svg>
