<svg width="18" height="18" viewBox="0 0 18 18" fill="none" xmlns="http://www.w3.org/2000/svg">
<path d="M1.0498 16.1997C1.04976 16.6139 1.38551 16.9498 1.79972 16.9498C2.21393 16.9498 2.54976 16.6141 2.5498 16.1999L1.0498 16.1997ZM1.80011 13.4995L2.55011 13.4996L1.80011 13.4995ZM9.4498 11.5498C9.86402 11.5498 10.1998 11.214 10.1998 10.7998C10.1998 10.3856 9.86402 10.0498 9.4498 10.0498V11.5498ZM16.1998 12.4498C16.614 12.4498 16.9498 12.114 16.9498 11.6998C16.9498 11.2856 16.614 10.9498 16.1998 10.9498V12.4498ZM12.1498 10.9498C11.7356 10.9498 11.3998 11.2856 11.3998 11.6998C11.3998 12.114 11.7356 12.4498 12.1498 12.4498V10.9498ZM13.4248 13.7247C13.4248 14.1389 13.7606 14.4747 14.1748 14.4747C14.589 14.4747 14.9248 14.1389 14.9248 13.7247H13.4248ZM14.9248 9.6747C14.9248 9.26049 14.589 8.9247 14.1748 8.9247C13.7606 8.9247 13.4248 9.26049 13.4248 9.6747H14.9248ZM10.0498 4.4998C10.0498 5.57676 9.17676 6.4498 8.0998 6.4498V7.9498C10.0052 7.9498 11.5498 6.40519 11.5498 4.4998H10.0498ZM8.0998 6.4498C7.02285 6.4498 6.1498 5.57676 6.1498 4.4998H4.6498C4.6498 6.40519 6.19442 7.9498 8.0998 7.9498V6.4498ZM6.1498 4.4998C6.1498 3.42285 7.02285 2.5498 8.0998 2.5498V1.0498C6.19442 1.0498 4.6498 2.59442 4.6498 4.4998H6.1498ZM8.0998 2.5498C9.17676 2.5498 10.0498 3.42285 10.0498 4.4998H11.5498C11.5498 2.59442 10.0052 1.0498 8.0998 1.0498V2.5498ZM2.5498 16.1999L2.55011 13.4996L1.05011 13.4994L1.0498 16.1997L2.5498 16.1999ZM4.50011 10.0498C2.59488 10.0498 1.05032 11.5942 1.05011 13.4994L2.55011 13.4996C2.55023 12.4227 3.42324 11.5498 4.50011 11.5498V10.0498ZM4.50011 11.5498H9.4498V10.0498H4.50011V11.5498ZM16.1998 10.9498H14.1748V12.4498H16.1998V10.9498ZM14.1748 10.9498H12.1498V12.4498H14.1748V10.9498ZM14.9248 13.7247V11.6998H13.4248V13.7247H14.9248ZM14.9248 11.6998V9.6747H13.4248V11.6998H14.9248Z" fill="white"/>
</svg>
